<?xml version="1.0" encoding="utf-8"?>
<!-- Generator: Adobe Illustrator 15.1.0, SVG Export Plug-In . SVG Version: 6.00 Build 0)  -->
<!DOCTYPE svg PUBLIC "-//W3C//DTD SVG 1.1//EN" "http://www.w3.org/Graphics/SVG/1.1/DTD/svg11.dtd">
<svg version="1.1" id="Layer_1" xmlns="http://www.w3.org/2000/svg" xmlns:xlink="http://www.w3.org/1999/xlink" x="0px" y="0px"
	 width="14px" height="14px" viewBox="0 0 14 14" enable-background="new 0 0 14 14" xml:space="preserve">
<g id="surface897202">
	<path fill="#42BA96" d="M6.761,0C3.032,0,0,3.139,0,7c0,3.859,3.032,7,6.761,7c3.729,0,6.761-3.141,6.761-7
		c0-0.788-0.133-1.545-0.364-2.25l-1.097,1.132C12.133,6.242,12.17,6.617,12.17,7c0,3.087-2.428,5.6-5.409,5.6
		c-2.982,0-5.409-2.513-5.409-5.6s2.427-5.6,5.409-5.6c1.104,0,2.132,0.345,2.989,0.938l0.967-1.003C9.604,0.498,8.236,0,6.761,0z
		 M13.044,0.905L6.085,8.109L3.859,5.805l-0.957,0.99l3.183,3.294L14,1.895L13.044,0.905z"/>
</g>
</svg>
