
  <svg xmlns="http://www.w3.org/2000/svg" viewBox="0 0 18 18">
    <title>1</title>
    <g id="Layer_2" data-name="Layer 2">
      <g>
        <path d="M14.87,18H3.13A3.14,3.14,0,0,1,0,14.87V3.13A3.14,3.14,0,0,1,3.13,0H5A1,1,0,0,1,5,2H3.13A1.14,1.14,0,0,0,2,3.13V14.87A1.14,1.14,0,0,0,3.13,16H14.87A1.14,1.14,0,0,0,16,14.87V13a1,1,0,0,1,2,0v1.87A3.14,3.14,0,0,1,14.87,18Z" style="fill: #396ac6"/>
        <path d="M17,0H11a1,1,0,0,0,0,2h3.59L8.29,8.29a1,1,0,0,0,0,1.42,1,1,0,0,0,1.42,0L16,3.41V7a1,1,0,0,0,2,0V1A1,1,0,0,0,17,0Z" style="fill: #396ac6"/>
      </g>
    </g>
  </svg>
