<svg xmlns="http://www.w3.org/2000/svg" width="407" height="58" fill="none"><path fill="#FFD25F" d="m282 57 3.9-.2h-.5c1.3-.2 2.7-.2 4 0h-.5c6.5-.1 8.5.3 14.2.2 3 0 4.6-.4 8-.3 4.2.2 8 0 12 0h-.4c3.4-.5 8.1-.8 15.9-1 1 0 2-.3 3-.4l6.9-.3c5.1-.4 9.3-.4 14.7-1.1l4.7-.6a23.6 23.6 0 0 0 3.8-1 5.6 5.6 0 0 0 1.7-.9l.3-.3.3-.4c.3-.5.5-1.1.5-1.8a4.8 4.8 0 0 0-.3-2.2v-.3l-.3-.4-.7-.8a6 6 0 0 0-1-.7c-.4-.3-1-.5-1.5-.7l-2.9-1c-1.8-.6-3.7-1-5.6-1.5-3-.6-5.5-1.2-7-1.7l.4.1c-7.2-1.6-15.1-2.9-22.6-4-8.4-1.5-15.5-2.3-22.6-3.2-5.6-.8-9-1.6-15.7-2.4-6-.6-11-.9-18.8-1.9l-13.3-2-12.7-1.8c-3.8-.5-5.8-.7-7.7-.7-3.5 0-7-.4-10.6-1l-7.1-1c-3.9-.3-6.6-.4-10.3-.8-4.6-.4-10.4-1-14.9-1.6a366 366 0 0 0-17.8-2l-8.6-.8-6.7-1.2c-1.9-.5-8-1.3-12.6-2-3.7-.5-6.8-.8-10.3-1l-5.8-.8-7.3-.6-9-1.2-16-1.2c-4.5-.3-8-.4-14.8-1.2l-9-.8-8.8-.6-15.7-1.4c-6.4-.9-6.4-.8-11.6-1.4L26.8 1.3c-2.5.1-7.6-.3-14.6-1L8 0 0 .6c6.2 1 8.7 1.8 15.9 3 6.5 1 12.7 1.9 23 2.9l6 .7 4.8.8L63 9.2c11.5 1 23.6 2.1 33.2 2.7 3.6.2 4 .3 10.7 1.3 5 .7 7.9 1.2 10.8 1.8l14.1 1.5c5.8 1 13.3 1.8 22.4 2.7 9.6.9 17.5 2 23 3 0 0-1.2.2.2.4 5.3.8 7.9 1.4 15.1 2.4 6.8.7 14 1.5 18.8 1.7 4 .3 8.5.7 13.6 1.3l9.1 1c5.9.3 12.8 1 21.3 2.2 3 .4 6.7.9 9 1l-1.5-.2 1.1.2c3.4.3 6.7.6 10.5 1.3l4.4.6 23.5 3 2.4.4c6 .5 12.4 1.3 21 2.7l19.2 3.2 3.9.4-1.7-.3.8.1.5.2c4.3.7 8.3 1.3 13 2.5a249.7 249.7 0 0 1 8.5 2.4l1.1.5.5.3.1-.1.4-.6c0-.2.2-.3.3-.3.2-.1.1 0 0-.2l-.4-.5-.2-.3-.1-.3-.3.3-1.2.4c-.9.3-1.8.5-2.9.6-4.4.8-6.7 1.3-12 1.6-3.5-.2-7 0-10.5.3-5.9.4-6.6 0-9.3.1a907.8 907.8 0 0 1-29.2 1h-15c-3.5 0-6.9-.2-8.3-.3-2.9-.4-8.7-.4-14.1-.4-3.8 0-6.4-.1-9.3-.3l-12-.4c-10.4-.2-20.7-.2-31.1-.6l-9.8-.1h-7.3c-4.5-.6-9-.8-13.4-.7l-6.2-.2h-3.3c-2.4-.1-3-.4-7.2-.5h-3.7c-5.2.2-11.7 0-19.6-.4-9-.5-18-.9-25.8-1-6 0-12.8-.6-19.1-.9-4-.6-12.7-1-18-1.7-6.7-.1-13.5-.5-21.4-1.4-2.7-.3-6-.8-8.5-.8-3 0-8.2-.8-10.3-.9A115 115 0 0 1 26 39.1l-2.6-.7-2.2-.8a15.3 15.3 0 0 1-2.5-1.2v.3l-.4.5c0 .3-.2.6-.4.8-.3.4-.4.2-.2.3l.3.4.3.4.2.5.3.5a68.4 68.4 0 0 1 8.7-2.7l4.7-1c6.1-1 11.1-1.5 16.4-2.2 5.7-.7 11.1-1.3 16-1.7l2.5-.3c2-.3 4-.6 6.2-.7l4.2-.3c9.9-.8 21-2.1 30.6-2.6 9.6-1 20-1.6 29.7-2.6l9-.7 3.9-.3c7.7 0 17-.7 27.7-1.5l6.5-.4c2.3 0 4.7-.3 7-.8l1.8-.3c6.9-.4 6.8-.4 13.5-1l16.6-1.3c7-.3 12.6-.3 20.6-.7 16.2-.9 30.4-1.2 45.2-1.5 4 .1 9.8-.1 15.2-.3l9.8-.4 18-.5a64.3 64.3 0 0 1 11.3.3c5.2-.1 10.6-.2 15.6-.1 3-.2 6.1-.4 9.7-.4 3.6 0 7.8 0 12.6.7h-.4l2 .3a6.1 6.1 0 0 1 1.1.4l.2-.4.3-.7c.1-.3.3-.5.5-.6a.8.8 0 0 1-.4-.3l-.1-.2-.3-.3-.1-.3-.2-.2v-.1l-.2.2-1 .5c-.6.4-1.4.7-2.2 1a97 97 0 0 1-11 3.2c3.5-1 5.5-1.7 7.6-2.5-4.5 1.2-9 2.1-13.6 3a343 343 0 0 1-8 1.9c-8 1.5-14.4 2.3-20 3-8.5.8-8.8.9-18.8 2.7l-2.7.4-10.1 1.2-4.6.6c-6.2 1-14.6 1.8-21 2.6a338 338 0 0 1-24.2 2.2 101.5 101.5 0 0 1-12.6 1c-1.2-.3-7.3 0-11.8.1-4.2.2-8.5.4-13.1.4-3.8 0-7.3.3-9.9.5-3.4.3-5.4 0-9.3 0-3.4.4-10.2.5-17.5.4-4.3 0-8.8-.2-13.3-.4a651 651 0 0 0-17.3-.5c-6 0-12.3-.2-18.3-.6l-17-1.7-19.9-2a483.3 483.3 0 0 1-38.4-5.3c-2.6-.7-6.7-1.3-11.4-2.1l-11.2-2-6.9-1.2c-2-.4-2.8-.4-7.7-1.7-2.1-.7-4.5-1.4-7-2.5l-1.7-.9-.7-.5h-.1s0-.1 0 0L9 16c-.1.3-.3.6-.6.8l.3.4.2.5.4.9.2-.2.9-.2 2-.2a168.8 168.8 0 0 1 24.2-1c8 0 15.4.3 22.8.7 5 .2 9.7.4 13.7.3.7 0 3.3 0 4.5.2 4.4.3 8.8.5 13.3.6l6.2.4 7.7.5 8 .1c5.5.4 10.2.8 15.2 1 5 .2 9.1 0 14.1.3 6.4.3 7.7 0 14 .3 3.7.5 8.6 1 15.4 1.5 8 .6 13.8.6 20.7 1 2.1.3 3.7.6 6 .7 8.6.7 17.5 1.4 26 1.7 3.9.1 8.3.3 13 .7 8.4.7 17.7 1.2 25 2l14.2.6c8.2.7 14.7 1.5 23.3 1.9l4.2.4c10.1 1 19.5 1.5 26.7 1.6 3.6 0 7.9.3 12.6.6l11.5 1 6.9.9 4.4.4 16.1 1.2 8 .5 9.2.8 4.8-.3c-3.5-.6 1-.5 2.9-.6-3.4-.5-7.2-1-12.1-1.5l-3.5-.2-10.3-.4c-3.9-.4-7.4-.8-10.6-1l-12.4-1.1c-7.9-.7-14.4-1.5-23-2.2-1.4 0-2.5-.3-3.8-.4l3.4-.2-5-.7c-5.8-.6-11.4-1.4-19.2-2-12.6-1-25.4-2-38.1-2.7l-12.6-.5c-9.7-.9-9.7-.9-18-1.2-6.6-1.4-7.2-1.5-21.6-2.9l-13.8-.4c-5.2 0-12.3-.7-17.4-.8h-10c-2.7 0-5.2 0-9.7-.3-2 0-4.1-.3-6.1-.8l-2.7-.6-15.2-1-13.3-1-11.7-.6-13.2-.7-11.4-.6c-5-.2-7.5-.6-12-.7l-.6.1-.4.2c-16-.8-16-.8-26-.5h-1.4c-12.4-.5-12.4-.6-26.6-.6l-8.9-.2a73.4 73.4 0 0 0-11.3.7A3.4 3.4 0 0 0 6 16a4.2 4.2 0 0 0 0 1.3 4.8 4.8 0 0 0 .5 1.8l.2.4.4.4c.7.6 1.4 1 2.2 1.4a26.2 26.2 0 0 0 5 2A146.1 146.1 0 0 0 31 27.7l2.6.5c4.4.5 12.6 1.9 18.4 2.6l4.8.7c9.4 1.5 18.8 2.9 27.7 4l9.5.8c8.5 1 15.8 2 24.4 2.5 2.2 0-.6-.5 5.5 0l15.6 1.7 10.2.8H164c7 .4 13.4.7 20.2.7 8 .3 13.9 0 19.5-.3 5 0 9 .2 13.1 0 4.9 0 9.9-.3 15.7-.6 11.3 0 25-.8 38.9-1.8l9.6-.7c4.6-.4 4 0 7.6-.3 3.1-.6 6.2-.8 8.9-1l10-1.6c10.1-1.4 18.2-2.9 28.7-4.6 6.5-1.1 12.9-2.4 19.4-3.7l5.4-.8a132.4 132.4 0 0 0 22.3-6c.8-.2 1.7-.7 2.5-1.2l.8-.6a4.7 4.7 0 0 0 .7-1.1l.1-.2.1-.3a5.1 5.1 0 0 0 .3-1.6l-.2-1.4-.6-1.1-.2-.3-.2-.2-.3-.2c-.2-.3-.5-.4-.8-.6a13 13 0 0 0-2.5-.8l-2.4-.4-4.9-.5c-5.1-.4-2.5-.6-6.5-.9l-3.4-.2-9.5.2c-9.2-.5-20.1-.1-29.8 0-4.8-.4-9.6-.4-14.4-.1l-8.1.3h-4 .5l-4.8.1-26.6 1c-8.1.2-16.5.7-23.4 1.4-5.2.6-12.6 1-19.4 1.6-3.7.3-4 0-6.8.3l-15.6 1.4 2.7.2-8.9.7-8.2.7c-11.7.2-16.3.4-27.8 1.2-7 .6-11.8.8-16.8 1l-4.5.2-12 1.2-16.7 1c-3.7.2-6.4.5-9 .9 1.4 0 7.1-.6 6.1-.2-5.3.6-10.3 1-14.4 1.1-1.4 0-2.5 0-5 .3-5.3.6-7.7.5-11.4 1-4.6.5-4.2.8-9.7 1.3-5.6 0-5.6 0-18.6 1.3L40 28.3c-4.9.6-9.7 1.4-14.3 2.4a43.8 43.8 0 0 0-8.7 3l-.6.4-.4.4a5.8 5.8 0 0 0-.8 1.2c-.1.3-.3.6-.3 1a6.1 6.1 0 0 0-.1 2.5 4.8 4.8 0 0 0 2.5 3.5l.9.4 1.6.5a79.6 79.6 0 0 0 16.9 2.6c2.2 0 7 .6 10.8 1 5.6.8 11.4 1.4 17.7 1.9 6.4.5 9.6 1 14.6 1.5H84c7.3.3 9.3.4 18.3 1l2.7.2 12 .4c6.5 0 13 .3 20 .8l7.7.5c5.2 0 10 0 17 .4l4.8.2c8.2.3 16 .5 18.5 1l13.5 1.1 5.2.1 16.6-.1h17.3l2.8.2c4.8.5 9.6.6 14.4.4 7 .1 13.5-.1 20.8.1h6.7-.3zM70.9 49l2.6.3c.4 0 .2.1-.4 0l-6.4-.2c-2.3-.5 1.6-.2 4.2 0zm143.4-23.3.4.1-1.5-.1h-.3 1.4zm-189 5.5h-.4l1.4-.2h.3l-1.3.2z"/><path fill="#FFD25F" d="M355.6 39.7h.7l-1.1-.1h.4zM285.4 57H282h3.4zm3.9 0h-3.9.5v-.2h-.5 4-.5v.2h.4zm33.4-.3h1.5-1.5zM300.4 9.6h1.3-1.7.4zm80.9 7.1 1.4.3-1-.2h-.4z"/></svg>